<svg xmlns="http://www.w3.org/2000/svg" width="1170" height="232"><path d="M-46,-73L-11,-69L111,-60Z" fill="#f3edf6" stroke="#f3edf6" stroke-width="1.51"/><path d="M-46,-73L111,-60L194,-58Z" fill="#eee9f3" stroke="#eee9f3" stroke-width="1.51"/><path d="M172,315L-59,323L575,322Z" fill="#7183a0" stroke="#7183a0" stroke-width="1.51"/><path d="M266,310L172,315L575,322Z" fill="#657f9f" stroke="#657f9f" stroke-width="1.51"/><path d="M239,-56L382,-56L577,-91Z" fill="#cfd7e9" stroke="#cfd7e9" stroke-width="1.51"/><path d="M194,-58L239,-56L577,-91Z" fill="#d8daeb" stroke="#d8daeb" stroke-width="1.51"/><path d="M-46,-73L194,-58L577,-91Z" fill="#e4e1ef" stroke="#e4e1ef" stroke-width="1.51"/><path d="M872,298L815,314L985,294Z" fill="#0c5e91" stroke="#0c5e91" stroke-width="1.51"/><path d="M985,294L815,314L1076,312Z" fill="#04588a" stroke="#04588a" stroke-width="1.51"/><path d="M815,314L786,319L1076,312Z" fill="#0b5a8a" stroke="#0b5a8a" stroke-width="1.51"/><path d="M1076,312L786,319L1204,318Z" fill="#03517e" stroke="#03517e" stroke-width="1.51"/><path d="M577,-91L877,-89L1225,-93Z" fill="#9cb4d7" stroke="#9cb4d7" stroke-width="1.51"/><path d="M877,-89L927,-86L1225,-93Z" fill="#96abcd" stroke="#96abcd" stroke-width="1.51"/><path d="M1060,-39L1108,-37L1225,-93Z" fill="#899cbb" stroke="#899cbb" stroke-width="1.51"/><path d="M927,-86L1060,-39L1225,-93Z" fill="#90a4c4" stroke="#90a4c4" stroke-width="1.51"/><path d="M1192,-56L1222,3L1225,-93Z" fill="#8392ad" stroke="#8392ad" stroke-width="1.51"/><path d="M1225,-93L1222,3L1249,50Z" fill="#7889a6" stroke="#7889a6" stroke-width="1.51"/><path d="M1168,163L1217,217L1258,195Z" fill="#156291" stroke="#156291" stroke-width="1.51"/><path d="M1217,217L1239,294L1258,195Z" fill="#035484" stroke="#035484" stroke-width="1.51"/><path d="M1249,50L1182,53L1261,127Z" fill="#56799d" stroke="#56799d" stroke-width="1.51"/><path d="M1182,53L1157,98L1261,127Z" fill="#4f7aa0" stroke="#4f7aa0" stroke-width="1.51"/><path d="M1157,98L1168,163L1261,127Z" fill="#3b739c" stroke="#3b739c" stroke-width="1.51"/><path d="M1168,163L1258,195L1261,127Z" fill="#236993" stroke="#236993" stroke-width="1.51"/><path d="M927,-86L1027,-41L1060,-39Z" fill="#90a6ca" stroke="#90a6ca" stroke-width="1.51"/><path d="M1222,3L1182,53L1249,50Z" fill="#6982a3" stroke="#6982a3" stroke-width="1.51"/><path d="M1134,293L1076,312L1204,318Z" fill="#034b76" stroke="#034b76" stroke-width="1.51"/><path d="M1192,-56L1180,-22L1222,3Z" fill="#7e90ad" stroke="#7e90ad" stroke-width="1.51"/><path d="M1217,217L1182,216L1239,294Z" fill="#045586" stroke="#045586" stroke-width="1.51"/><path d="M1182,216L1204,318L1239,294Z" fill="#034e7b" stroke="#034e7b" stroke-width="1.51"/><path d="M1182,216L1134,293L1204,318Z" fill="#035281" stroke="#035281" stroke-width="1.51"/><path d="M1168,163L1182,216L1217,217Z" fill="#126294" stroke="#126294" stroke-width="1.51"/><path d="M1108,-37L1192,-56L1225,-93Z" fill="#8798b4" stroke="#8798b4" stroke-width="1.51"/><path d="M1180,-22L1182,53L1222,3Z" fill="#7489a9" stroke="#7489a9" stroke-width="1.51"/><path d="M577,-91L724,-66L877,-89Z" fill="#a8c3de" stroke="#a8c3de" stroke-width="1.51"/><path d="M1180,-22L1125,7L1182,53Z" fill="#768caf" stroke="#768caf" stroke-width="1.51"/><path d="M1107,252L1134,293L1182,216Z" fill="#045a8d" stroke="#045a8d" stroke-width="1.51"/><path d="M1168,163L1142,197L1182,216Z" fill="#166799" stroke="#166799" stroke-width="1.51"/><path d="M1108,-37L1180,-22L1192,-56Z" fill="#8496b5" stroke="#8496b5" stroke-width="1.51"/><path d="M1142,197L1107,252L1182,216Z" fill="#046198" stroke="#046198" stroke-width="1.51"/><path d="M1115,38L1157,98L1182,53Z" fill="#6184ac" stroke="#6184ac" stroke-width="1.51"/><path d="M1125,7L1115,38L1182,53Z" fill="#6f8bb0" stroke="#6f8bb0" stroke-width="1.51"/><path d="M1108,-37L1125,7L1180,-22Z" fill="#8095b6" stroke="#8095b6" stroke-width="1.51"/><path d="M1157,98L1098,120L1168,163Z" fill="#3f7aa6" stroke="#3f7aa6" stroke-width="1.51"/><path d="M1098,120L1142,197L1168,163Z" fill="#2973a1" stroke="#2973a1" stroke-width="1.51"/><path d="M1115,38L1085,61L1157,98Z" fill="#6288b1" stroke="#6288b1" stroke-width="1.51"/><path d="M1085,61L1098,120L1157,98Z" fill="#5483ae" stroke="#5483ae" stroke-width="1.51"/><path d="M1098,120L1059,178L1142,197Z" fill="#2575a7" stroke="#2575a7" stroke-width="1.51"/><path d="M1092,249L1107,252L1142,197Z" fill="#056198" stroke="#056198" stroke-width="1.51"/><path d="M1059,178L1092,249L1142,197Z" fill="#0e69a1" stroke="#0e69a1" stroke-width="1.51"/><path d="M1107,252L1076,312L1134,293Z" fill="#035586" stroke="#035586" stroke-width="1.51"/><path d="M1092,249L1076,312L1107,252Z" fill="#045b8f" stroke="#045b8f" stroke-width="1.51"/><path d="M1055,20L1115,38L1125,7Z" fill="#7792b8" stroke="#7792b8" stroke-width="1.51"/><path d="M1108,-37L1055,20L1125,7Z" fill="#7f96bb" stroke="#7f96bb" stroke-width="1.51"/><path d="M1060,-39L1055,20L1108,-37Z" fill="#849bbf" stroke="#849bbf" stroke-width="1.51"/><path d="M1055,20L1085,61L1115,38Z" fill="#6f8fb7" stroke="#6f8fb7" stroke-width="1.51"/><path d="M1085,61L1025,107L1098,120Z" fill="#5486b4" stroke="#5486b4" stroke-width="1.51"/><path d="M1025,107L1035,138L1098,120Z" fill="#4582b2" stroke="#4582b2" stroke-width="1.51"/><path d="M1035,138L1059,178L1098,120Z" fill="#367cae" stroke="#367cae" stroke-width="1.51"/><path d="M1059,178L979,211L1092,249Z" fill="#0c6ba6" stroke="#0c6ba6" stroke-width="1.51"/><path d="M979,211L985,294L1092,249Z" fill="#04649d" stroke="#04649d" stroke-width="1.51"/><path d="M985,294L1076,312L1092,249Z" fill="#04598c" stroke="#04598c" stroke-width="1.51"/><path d="M1055,20L1017,39L1085,61Z" fill="#7091bb" stroke="#7091bb" stroke-width="1.51"/><path d="M1017,39L1025,107L1085,61Z" fill="#638db9" stroke="#638db9" stroke-width="1.51"/><path d="M382,298L266,310L575,322Z" fill="#5d7da0" stroke="#5d7da0" stroke-width="1.51"/><path d="M711,307L575,322L786,319Z" fill="#2d6a92" stroke="#2d6a92" stroke-width="1.51"/><path d="M577,-91L616,-78L724,-66Z" fill="#b2c9e1" stroke="#b2c9e1" stroke-width="1.51"/><path d="M979,211L968,272L985,294Z" fill="#04659e" stroke="#04659e" stroke-width="1.51"/><path d="M1027,-41L1017,39L1055,20Z" fill="#7f99c1" stroke="#7f99c1" stroke-width="1.51"/><path d="M983,171L979,211L1059,178Z" fill="#1b75ad" stroke="#1b75ad" stroke-width="1.51"/><path d="M1027,-41L1055,20L1060,-39Z" fill="#869dc2" stroke="#869dc2" stroke-width="1.51"/><path d="M1035,138L983,171L1059,178Z" fill="#287baf" stroke="#287baf" stroke-width="1.51"/><path d="M976,-18L1017,39L1027,-41Z" fill="#839dc5" stroke="#839dc5" stroke-width="1.51"/><path d="M927,-86L976,-18L1027,-41Z" fill="#90a7cc" stroke="#90a7cc" stroke-width="1.51"/><path d="M1025,107L965,145L1035,138Z" fill="#4283b5" stroke="#4283b5" stroke-width="1.51"/><path d="M965,145L983,171L1035,138Z" fill="#3380b4" stroke="#3380b4" stroke-width="1.51"/><path d="M1017,39L915,83L1025,107Z" fill="#618fbe" stroke="#618fbe" stroke-width="1.51"/><path d="M915,83L965,145L1025,107Z" fill="#4e8abc" stroke="#4e8abc" stroke-width="1.51"/><path d="M976,-18L915,83L1017,39Z" fill="#7698c4" stroke="#7698c4" stroke-width="1.51"/><path d="M887,-9L874,32L915,83Z" fill="#7a9ecb" stroke="#7a9ecb" stroke-width="1.51"/><path d="M887,-9L915,83L920,-29Z" fill="#82a0cc" stroke="#82a0cc" stroke-width="1.51"/><path d="M927,-86L920,-29L976,-18Z" fill="#91a9d0" stroke="#91a9d0" stroke-width="1.51"/><path d="M920,-29L915,83L976,-18Z" fill="#819ecb" stroke="#819ecb" stroke-width="1.51"/><path d="M919,246L968,272L979,211Z" fill="#056aa6" stroke="#056aa6" stroke-width="1.51"/><path d="M960,183L979,211L983,171Z" fill="#1b77b0" stroke="#1b77b0" stroke-width="1.51"/><path d="M968,272L872,298L985,294Z" fill="#045f96" stroke="#045f96" stroke-width="1.51"/><path d="M965,145L960,183L983,171Z" fill="#267eb4" stroke="#267eb4" stroke-width="1.51"/><path d="M960,183L919,246L979,211Z" fill="#0c71ae" stroke="#0c71ae" stroke-width="1.51"/><path d="M724,-66L750,-61L877,-89Z" fill="#a0bcdb" stroke="#a0bcdb" stroke-width="1.51"/><path d="M915,83L894,102L965,145Z" fill="#508dc0" stroke="#508dc0" stroke-width="1.51"/><path d="M919,246L872,298L968,272Z" fill="#07669f" stroke="#07669f" stroke-width="1.51"/><path d="M863,157L960,183L965,145Z" fill="#2b81b9" stroke="#2b81b9" stroke-width="1.51"/><path d="M894,102L863,157L965,145Z" fill="#428abe" stroke="#428abe" stroke-width="1.51"/><path d="M863,157L919,246L960,183Z" fill="#1b79b4" stroke="#1b79b4" stroke-width="1.51"/><path d="M750,-61L850,-72L877,-89Z" fill="#9eb8d9" stroke="#9eb8d9" stroke-width="1.51"/><path d="M863,157L877,250L919,246Z" fill="#1375b3" stroke="#1375b3" stroke-width="1.51"/><path d="M877,250L872,298L919,246Z" fill="#0f6aa3" stroke="#0f6aa3" stroke-width="1.51"/><path d="M877,-89L920,-29L927,-86Z" fill="#97afd5" stroke="#97afd5" stroke-width="1.51"/><path d="M877,-89L850,-72L887,-9Z" fill="#97b2d5" stroke="#97b2d5" stroke-width="1.51"/><path d="M877,-89L887,-9L920,-29Z" fill="#93add3" stroke="#93add3" stroke-width="1.51"/><path d="M874,32L894,102L915,83Z" fill="#6897c6" stroke="#6897c6" stroke-width="1.51"/><path d="M863,157L849,258L877,250Z" fill="#1676b3" stroke="#1676b3" stroke-width="1.51"/><path d="M850,-72L832,-19L887,-9Z" fill="#93afd4" stroke="#93afd4" stroke-width="1.51"/><path d="M874,32L808,65L894,102Z" fill="#6d9cc9" stroke="#6d9cc9" stroke-width="1.51"/><path d="M808,65L863,157L894,102Z" fill="#5795c4" stroke="#5795c4" stroke-width="1.51"/><path d="M797,173L791,233L849,258Z" fill="#1d7bb6" stroke="#1d7bb6" stroke-width="1.51"/><path d="M808,65L797,144L863,157Z" fill="#5095c4" stroke="#5095c4" stroke-width="1.51"/><path d="M797,173L849,258L863,157Z" fill="#2580b9" stroke="#2580b9" stroke-width="1.51"/><path d="M849,258L872,298L877,250Z" fill="#136ca3" stroke="#136ca3" stroke-width="1.51"/><path d="M832,-19L874,32L887,-9Z" fill="#89a7cf" stroke="#89a7cf" stroke-width="1.51"/><path d="M832,-19L788,41L874,32Z" fill="#85a7cf" stroke="#85a7cf" stroke-width="1.51"/><path d="M788,41L808,65L874,32Z" fill="#79a3cd" stroke="#79a3cd" stroke-width="1.51"/><path d="M849,258L815,314L872,298Z" fill="#156799" stroke="#156799" stroke-width="1.51"/><path d="M785,189L791,233L797,173Z" fill="#2984ba" stroke="#2984ba" stroke-width="1.51"/><path d="M797,144L797,173L863,157Z" fill="#398cbf" stroke="#398cbf" stroke-width="1.51"/><path d="M791,233L815,314L849,258Z" fill="#1a70a5" stroke="#1a70a5" stroke-width="1.51"/><path d="M770,-23L832,-19L850,-72Z" fill="#97b4d6" stroke="#97b4d6" stroke-width="1.51"/><path d="M750,-61L770,-23L850,-72Z" fill="#9cb9d9" stroke="#9cb9d9" stroke-width="1.51"/><path d="M753,96L797,144L808,65Z" fill="#5f9cc7" stroke="#5f9cc7" stroke-width="1.51"/><path d="M791,233L786,319L815,314Z" fill="#1c6b9c" stroke="#1c6b9c" stroke-width="1.51"/><path d="M770,-23L788,41L832,-19Z" fill="#8eafd3" stroke="#8eafd3" stroke-width="1.51"/><path d="M711,307L786,319L791,233Z" fill="#1f6f9f" stroke="#1f6f9f" stroke-width="1.51"/><path d="M788,41L753,96L808,65Z" fill="#72a3cc" stroke="#72a3cc" stroke-width="1.51"/><path d="M708,227L711,307L791,233Z" fill="#297aad" stroke="#297aad" stroke-width="1.51"/><path d="M785,189L797,173L797,144Z" fill="#338cbf" stroke="#338cbf" stroke-width="1.51"/><path d="M717,124L785,189L797,144Z" fill="#4193c2" stroke="#4193c2" stroke-width="1.51"/><path d="M753,96L717,124L797,144Z" fill="#569bc7" stroke="#569bc7" stroke-width="1.51"/><path d="M724,-15L728,48L770,-23Z" fill="#91b3d5" stroke="#91b3d5" stroke-width="1.51"/><path d="M770,-23L728,48L788,41Z" fill="#88aed2" stroke="#88aed2" stroke-width="1.51"/><path d="M728,48L753,96L788,41Z" fill="#77a7ce" stroke="#77a7ce" stroke-width="1.51"/><path d="M785,189L708,227L791,233Z" fill="#2681b9" stroke="#2681b9" stroke-width="1.51"/><path d="M717,124L686,198L785,189Z" fill="#3c91c0" stroke="#3c91c0" stroke-width="1.51"/><path d="M686,198L708,227L785,189Z" fill="#3387bc" stroke="#3387bc" stroke-width="1.51"/><path d="M750,-61L724,-15L770,-23Z" fill="#9ab9d9" stroke="#9ab9d9" stroke-width="1.51"/><path d="M724,-66L724,-15L750,-61Z" fill="#a0bedb" stroke="#a0bedb" stroke-width="1.51"/><path d="M728,48L717,124L753,96Z" fill="#6ba3cb" stroke="#6ba3cb" stroke-width="1.51"/><path d="M708,227L642,263L711,307Z" fill="#347bac" stroke="#347bac" stroke-width="1.51"/><path d="M724,-66L620,-26L724,-15Z" fill="#a3bfdc" stroke="#a3bfdc" stroke-width="1.51"/><path d="M653,114L717,124L728,48Z" fill="#6ea4cd" stroke="#6ea4cd" stroke-width="1.51"/><path d="M635,35L653,114L728,48Z" fill="#81acd1" stroke="#81acd1" stroke-width="1.51"/><path d="M724,-15L635,35L728,48Z" fill="#90b3d5" stroke="#90b3d5" stroke-width="1.51"/><path d="M637,274L575,322L711,307Z" fill="#39739c" stroke="#39739c" stroke-width="1.51"/><path d="M653,114L686,198L717,124Z" fill="#559ac6" stroke="#559ac6" stroke-width="1.51"/><path d="M616,-78L620,-26L724,-66Z" fill="#acc5df" stroke="#acc5df" stroke-width="1.51"/><path d="M620,-26L635,35L724,-15Z" fill="#9ebad9" stroke="#9ebad9" stroke-width="1.51"/><path d="M642,263L637,274L711,307Z" fill="#3778a6" stroke="#3778a6" stroke-width="1.51"/><path d="M686,198L645,204L708,227Z" fill="#3d89bd" stroke="#3d89bd" stroke-width="1.51"/><path d="M645,204L642,263L708,227Z" fill="#3c84b8" stroke="#3c84b8" stroke-width="1.51"/><path d="M653,114L645,204L686,198Z" fill="#4a96c4" stroke="#4a96c4" stroke-width="1.51"/><path d="M239,-56L296,-49L382,-56Z" fill="#d8daeb" stroke="#d8daeb" stroke-width="1.51"/><path d="M585,202L642,263L645,204Z" fill="#4588be" stroke="#4588be" stroke-width="1.51"/><path d="M635,35L590,71L653,114Z" fill="#83aed2" stroke="#83aed2" stroke-width="1.51"/><path d="M590,71L586,102L653,114Z" fill="#7babd1" stroke="#7babd1" stroke-width="1.51"/><path d="M585,202L645,204L653,114Z" fill="#5098c5" stroke="#5098c5" stroke-width="1.51"/><path d="M586,102L585,202L653,114Z" fill="#65a2ca" stroke="#65a2ca" stroke-width="1.51"/><path d="M543,302L382,298L575,322Z" fill="#50799e" stroke="#50799e" stroke-width="1.51"/><path d="M585,202L570,219L642,263Z" fill="#4989bc" stroke="#4989bc" stroke-width="1.51"/><path d="M382,-56L458,-44L577,-91Z" fill="#c5d2e7" stroke="#c5d2e7" stroke-width="1.51"/><path d="M620,-26L561,3L635,35Z" fill="#a3bddb" stroke="#a3bddb" stroke-width="1.51"/><path d="M570,219L637,274L642,263Z" fill="#4383b3" stroke="#4383b3" stroke-width="1.51"/><path d="M476,282L382,298L543,302Z" fill="#587fa6" stroke="#587fa6" stroke-width="1.51"/><path d="M539,252L575,322L637,274Z" fill="#467da8" stroke="#467da8" stroke-width="1.51"/><path d="M570,219L539,252L637,274Z" fill="#4a86b6" stroke="#4a86b6" stroke-width="1.51"/><path d="M561,3L590,71L635,35Z" fill="#98b7d8" stroke="#98b7d8" stroke-width="1.51"/><path d="M539,252L543,302L575,322Z" fill="#4a7ca5" stroke="#4a7ca5" stroke-width="1.51"/><path d="M577,-91L549,-58L616,-78Z" fill="#b9cce4" stroke="#b9cce4" stroke-width="1.51"/><path d="M616,-78L549,-58L620,-26Z" fill="#b4c9e1" stroke="#b4c9e1" stroke-width="1.51"/><path d="M549,-58L561,3L620,-26Z" fill="#b0c5e0" stroke="#b0c5e0" stroke-width="1.51"/><path d="M517,178L585,202L586,102Z" fill="#61a0c9" stroke="#61a0c9" stroke-width="1.51"/><path d="M515,122L517,178L586,102Z" fill="#73a7ce" stroke="#73a7ce" stroke-width="1.51"/><path d="M561,3L533,21L590,71Z" fill="#9fbada" stroke="#9fbada" stroke-width="1.51"/><path d="M523,77L586,102L590,71Z" fill="#87b0d3" stroke="#87b0d3" stroke-width="1.51"/><path d="M533,21L523,77L590,71Z" fill="#96b6d8" stroke="#96b6d8" stroke-width="1.51"/><path d="M458,-44L549,-58L577,-91Z" fill="#becfe5" stroke="#becfe5" stroke-width="1.51"/><path d="M517,178L570,219L585,202Z" fill="#5794c4" stroke="#5794c4" stroke-width="1.51"/><path d="M523,77L515,122L586,102Z" fill="#83afd2" stroke="#83afd2" stroke-width="1.51"/><path d="M517,178L539,252L570,219Z" fill="#5590c2" stroke="#5590c2" stroke-width="1.51"/><path d="M549,-58L533,21L561,3Z" fill="#b0c3df" stroke="#b0c3df" stroke-width="1.51"/><path d="M517,178L490,253L539,252Z" fill="#588ebf" stroke="#588ebf" stroke-width="1.51"/><path d="M539,252L490,253L543,302Z" fill="#5385b1" stroke="#5385b1" stroke-width="1.51"/><path d="M490,253L476,282L543,302Z" fill="#5582ad" stroke="#5582ad" stroke-width="1.51"/><path d="M457,-29L533,21L549,-58Z" fill="#b7c8e1" stroke="#b7c8e1" stroke-width="1.51"/><path d="M458,-44L457,-29L549,-58Z" fill="#c0cee4" stroke="#c0cee4" stroke-width="1.51"/><path d="M453,57L523,77L533,21Z" fill="#9fb9d9" stroke="#9fb9d9" stroke-width="1.51"/><path d="M457,-29L453,57L533,21Z" fill="#b0c2de" stroke="#b0c2de" stroke-width="1.51"/><path d="M515,122L473,134L517,178Z" fill="#73a7ce" stroke="#73a7ce" stroke-width="1.51"/><path d="M473,134L515,122L523,77Z" fill="#83aed2" stroke="#83aed2" stroke-width="1.51"/><path d="M453,57L473,134L523,77Z" fill="#90b4d6" stroke="#90b4d6" stroke-width="1.51"/><path d="M473,134L448,149L517,178Z" fill="#72a6cd" stroke="#72a6cd" stroke-width="1.51"/><path d="M433,247L490,253L517,178Z" fill="#5f91c2" stroke="#5f91c2" stroke-width="1.51"/><path d="M448,149L433,247L517,178Z" fill="#689cc8" stroke="#689cc8" stroke-width="1.51"/><path d="M429,-9L453,57L457,-29Z" fill="#b8c6e0" stroke="#b8c6e0" stroke-width="1.51"/><path d="M433,247L476,282L490,253Z" fill="#5d8ab6" stroke="#5d8ab6" stroke-width="1.51"/><path d="M453,57L404,78L473,134Z" fill="#96b6d7" stroke="#96b6d7" stroke-width="1.51"/><path d="M404,78L448,149L473,134Z" fill="#88b0d4" stroke="#88b0d4" stroke-width="1.51"/><path d="M433,247L382,298L476,282Z" fill="#6188b2" stroke="#6188b2" stroke-width="1.51"/><path d="M395,151L433,247L448,149Z" fill="#70a1cb" stroke="#70a1cb" stroke-width="1.51"/><path d="M395,151L361,193L433,247Z" fill="#729eca" stroke="#729eca" stroke-width="1.51"/><path d="M404,78L389,130L448,149Z" fill="#8db2d4" stroke="#8db2d4" stroke-width="1.51"/><path d="M429,-9L404,78L453,57Z" fill="#adc0dd" stroke="#adc0dd" stroke-width="1.51"/><path d="M429,-9L457,-29L458,-44Z" fill="#c1cde4" stroke="#c1cde4" stroke-width="1.51"/><path d="M382,-56L429,-9L458,-44Z" fill="#c6d0e6" stroke="#c6d0e6" stroke-width="1.51"/><path d="M389,130L395,151L448,149Z" fill="#81acd1" stroke="#81acd1" stroke-width="1.51"/><path d="M337,28L404,78L429,-9Z" fill="#b6c4df" stroke="#b6c4df" stroke-width="1.51"/><path d="M353,-23L337,28L429,-9Z" fill="#c4cce4" stroke="#c4cce4" stroke-width="1.51"/><path d="M361,193L336,253L433,247Z" fill="#6e95c3" stroke="#6e95c3" stroke-width="1.51"/><path d="M336,253L342,267L433,247Z" fill="#6c90bb" stroke="#6c90bb" stroke-width="1.51"/><path d="M342,267L382,298L433,247Z" fill="#688cb5" stroke="#688cb5" stroke-width="1.51"/><path d="M382,-56L353,-23L429,-9Z" fill="#c9d1e6" stroke="#c9d1e6" stroke-width="1.51"/><path d="M296,-49L355,-44L382,-56Z" fill="#d3d7e9" stroke="#d3d7e9" stroke-width="1.51"/><path d="M359,106L389,130L404,78Z" fill="#97b6d8" stroke="#97b6d8" stroke-width="1.51"/><path d="M337,28L359,106L404,78Z" fill="#a9bedb" stroke="#a9bedb" stroke-width="1.51"/><path d="M355,-44L353,-23L382,-56Z" fill="#cfd5e8" stroke="#cfd5e8" stroke-width="1.51"/><path d="M389,130L361,193L395,151Z" fill="#7fabd0" stroke="#7fabd0" stroke-width="1.51"/><path d="M342,267L266,310L382,298Z" fill="#6b88ac" stroke="#6b88ac" stroke-width="1.51"/><path d="M359,106L361,193L389,130Z" fill="#88afd2" stroke="#88afd2" stroke-width="1.51"/><path d="M313,-17L337,28L353,-23Z" fill="#c9cee5" stroke="#c9cee5" stroke-width="1.51"/><path d="M262,113L284,190L359,106Z" fill="#93b4d6" stroke="#93b4d6" stroke-width="1.51"/><path d="M337,28L259,53L359,106Z" fill="#b2c2de" stroke="#b2c2de" stroke-width="1.51"/><path d="M259,53L262,113L359,106Z" fill="#a9bfdc" stroke="#a9bfdc" stroke-width="1.51"/><path d="M359,106L284,190L361,193Z" fill="#83acd1" stroke="#83acd1" stroke-width="1.51"/><path d="M284,190L336,253L361,193Z" fill="#789dca" stroke="#789dca" stroke-width="1.51"/><path d="M284,190L276,227L336,253Z" fill="#7a9bc8" stroke="#7a9bc8" stroke-width="1.51"/><path d="M313,-17L353,-23L355,-44Z" fill="#cfd3e8" stroke="#cfd3e8" stroke-width="1.51"/><path d="M296,-49L313,-17L355,-44Z" fill="#d3d6e9" stroke="#d3d6e9" stroke-width="1.51"/><path d="M336,253L266,310L342,267Z" fill="#708eb5" stroke="#708eb5" stroke-width="1.51"/><path d="M-11,-69L57,-57L111,-60Z" fill="#f0eaf4" stroke="#f0eaf4" stroke-width="1.51"/><path d="M276,227L266,310L336,253Z" fill="#7592bb" stroke="#7592bb" stroke-width="1.51"/><path d="M313,-17L259,53L337,28Z" fill="#c5cbe3" stroke="#c5cbe3" stroke-width="1.51"/><path d="M238,282L266,310L276,227Z" fill="#7892b8" stroke="#7892b8" stroke-width="1.51"/><path d="M296,-49L217,-27L313,-17Z" fill="#d7d8ea" stroke="#d7d8ea" stroke-width="1.51"/><path d="M217,-27L259,53L313,-17Z" fill="#d0d1e7" stroke="#d0d1e7" stroke-width="1.51"/><path d="M259,53L250,61L262,113Z" fill="#b4c3df" stroke="#b4c3df" stroke-width="1.51"/><path d="M262,113L224,175L284,190Z" fill="#8fb1d4" stroke="#8fb1d4" stroke-width="1.51"/><path d="M239,-56L217,-27L296,-49Z" fill="#dddceb" stroke="#dddceb" stroke-width="1.51"/><path d="M224,175L276,227L284,190Z" fill="#84a6ce" stroke="#84a6ce" stroke-width="1.51"/><path d="M210,237L238,282L276,227Z" fill="#7e99c1" stroke="#7e99c1" stroke-width="1.51"/><path d="M224,175L210,237L276,227Z" fill="#84a2cc" stroke="#84a2cc" stroke-width="1.51"/><path d="M217,-27L174,53L250,61Z" fill="#cbcfe5" stroke="#cbcfe5" stroke-width="1.51"/><path d="M217,-27L250,61L259,53Z" fill="#c9cde4" stroke="#c9cde4" stroke-width="1.51"/><path d="M250,61L202,89L262,113Z" fill="#b1c2de" stroke="#b1c2de" stroke-width="1.51"/><path d="M238,282L172,315L266,310Z" fill="#758aa9" stroke="#758aa9" stroke-width="1.51"/><path d="M202,89L224,175L262,113Z" fill="#a1bbda" stroke="#a1bbda" stroke-width="1.51"/><path d="M159,13L174,53L217,-27Z" fill="#d4d4e8" stroke="#d4d4e8" stroke-width="1.51"/><path d="M174,53L202,89L250,61Z" fill="#bcc8e1" stroke="#bcc8e1" stroke-width="1.51"/><path d="M-2,289L-59,323L172,315Z" fill="#8292ac" stroke="#8292ac" stroke-width="1.51"/><path d="M202,89L149,163L224,175Z" fill="#9db9d8" stroke="#9db9d8" stroke-width="1.51"/><path d="M194,-58L217,-27L239,-56Z" fill="#e1deee" stroke="#e1deee" stroke-width="1.51"/><path d="M210,237L172,315L238,282Z" fill="#7c93b7" stroke="#7c93b7" stroke-width="1.51"/><path d="M142,107L149,163L202,89Z" fill="#a8c1dd" stroke="#a8c1dd" stroke-width="1.51"/><path d="M156,231L172,315L210,237Z" fill="#829abf" stroke="#829abf" stroke-width="1.51"/><path d="M156,231L210,237L224,175Z" fill="#87a3ce" stroke="#87a3ce" stroke-width="1.51"/><path d="M149,163L156,231L224,175Z" fill="#8eadd2" stroke="#8eadd2" stroke-width="1.51"/><path d="M194,-58L159,13L217,-27Z" fill="#dddbeb" stroke="#dddbeb" stroke-width="1.51"/><path d="M54,270L-2,289L172,315Z" fill="#8496b5" stroke="#8496b5" stroke-width="1.51"/><path d="M174,53L142,107L202,89Z" fill="#b8c8e1" stroke="#b8c8e1" stroke-width="1.51"/><path d="M156,231L131,239L172,315Z" fill="#849bc0" stroke="#849bc0" stroke-width="1.51"/><path d="M111,-60L159,13L194,-58Z" fill="#e3e0ee" stroke="#e3e0ee" stroke-width="1.51"/><path d="M149,163L102,186L156,231Z" fill="#91aed3" stroke="#91aed3" stroke-width="1.51"/><path d="M105,266L54,270L172,315Z" fill="#8397b7" stroke="#8397b7" stroke-width="1.51"/><path d="M131,239L105,266L172,315Z" fill="#8399bc" stroke="#8399bc" stroke-width="1.51"/><path d="M159,13L92,43L174,53Z" fill="#ced2e7" stroke="#ced2e7" stroke-width="1.51"/><path d="M92,43L142,107L174,53Z" fill="#c2cce4" stroke="#c2cce4" stroke-width="1.51"/><path d="M142,107L98,133L149,163Z" fill="#a5bfdc" stroke="#a5bfdc" stroke-width="1.51"/><path d="M102,186L131,239L156,231Z" fill="#8ca6d0" stroke="#8ca6d0" stroke-width="1.51"/><path d="M111,-60L81,25L159,13Z" fill="#dfddec" stroke="#dfddec" stroke-width="1.51"/><path d="M81,25L92,43L159,13Z" fill="#d4d6e9" stroke="#d4d6e9" stroke-width="1.51"/><path d="M92,43L72,74L142,107Z" fill="#c1cee4" stroke="#c1cee4" stroke-width="1.51"/><path d="M98,133L102,186L149,163Z" fill="#9bbad9" stroke="#9bbad9" stroke-width="1.51"/><path d="M72,74L98,133L142,107Z" fill="#b4c7e1" stroke="#b4c7e1" stroke-width="1.51"/><path d="M72,74L65,101L98,133Z" fill="#b7cae2" stroke="#b7cae2" stroke-width="1.51"/><path d="M57,-57L81,25L111,-60Z" fill="#e8e3f1" stroke="#e8e3f1" stroke-width="1.51"/><path d="M102,186L105,266L131,239Z" fill="#8ca4cc" stroke="#8ca4cc" stroke-width="1.51"/><path d="M57,-57L44,19L81,25Z" fill="#e3dfee" stroke="#e3dfee" stroke-width="1.51"/><path d="M98,133L43,156L102,186Z" fill="#9fbcda" stroke="#9fbcda" stroke-width="1.51"/><path d="M102,186L59,263L105,266Z" fill="#8da4ca" stroke="#8da4ca" stroke-width="1.51"/><path d="M8,208L59,263L102,186Z" fill="#92aad2" stroke="#92aad2" stroke-width="1.51"/><path d="M59,263L54,270L105,266Z" fill="#8a9fc1" stroke="#8a9fc1" stroke-width="1.51"/><path d="M43,156L8,208L102,186Z" fill="#9ab7d7" stroke="#9ab7d7" stroke-width="1.51"/><path d="M65,101L43,156L98,133Z" fill="#acc4df" stroke="#acc4df" stroke-width="1.51"/><path d="M81,25L72,74L92,43Z" fill="#cfd4e8" stroke="#cfd4e8" stroke-width="1.51"/><path d="M44,19L72,74L81,25Z" fill="#d3d6e9" stroke="#d3d6e9" stroke-width="1.51"/><path d="M4,198L8,208L43,156Z" fill="#9ab7d8" stroke="#9ab7d8" stroke-width="1.51"/><path d="M-35,51L65,101L72,74Z" fill="#c6d1e6" stroke="#c6d1e6" stroke-width="1.51"/><path d="M44,19L-35,51L72,74Z" fill="#d2d7e9" stroke="#d2d7e9" stroke-width="1.51"/><path d="M-11,-69L44,19L57,-57Z" fill="#ece7f2" stroke="#ece7f2" stroke-width="1.51"/><path d="M9,142L43,156L65,101Z" fill="#adc5df" stroke="#adc5df" stroke-width="1.51"/><path d="M-35,51L9,142L65,101Z" fill="#bdcee4" stroke="#bdcee4" stroke-width="1.51"/><path d="M8,208L54,270L59,263Z" fill="#8ea5c8" stroke="#8ea5c8" stroke-width="1.51"/><path d="M8,208L-2,289L54,270Z" fill="#8ea3c6" stroke="#8ea3c6" stroke-width="1.51"/><path d="M-11,-69L-43,23L44,19Z" fill="#e7e3f0" stroke="#e7e3f0" stroke-width="1.51"/><path d="M9,142L4,198L43,156Z" fill="#a0bedb" stroke="#a0bedb" stroke-width="1.51"/><path d="M-43,23L-35,51L44,19Z" fill="#dbdbec" stroke="#dbdbec" stroke-width="1.51"/><path d="M-35,51L-57,107L9,142Z" fill="#becfe5" stroke="#becfe5" stroke-width="1.51"/><path d="M-78,-33L-43,23L-11,-69Z" fill="#eee9f3" stroke="#eee9f3" stroke-width="1.51"/><path d="M-46,-73L-78,-33L-11,-69Z" fill="#f5eef6" stroke="#f5eef6" stroke-width="1.51"/><path d="M-57,107L-105,195L4,198Z" fill="#a3c0dd" stroke="#a3c0dd" stroke-width="1.51"/><path d="M4,198L-78,240L8,208Z" fill="#97afd5" stroke="#97afd5" stroke-width="1.51"/><path d="M-78,240L-2,289L8,208Z" fill="#92a8cb" stroke="#92a8cb" stroke-width="1.51"/><path d="M-57,107L4,198L9,142Z" fill="#a9c3de" stroke="#a9c3de" stroke-width="1.51"/><path d="M-105,195L-78,240L4,198Z" fill="#9ab2d6" stroke="#9ab2d6" stroke-width="1.51"/><path d="M-78,240L-59,323L-2,289Z" fill="#8d9fbc" stroke="#8d9fbc" stroke-width="1.51"/><path d="M-43,23L-95,35L-35,51Z" fill="#dbdded" stroke="#dbdded" stroke-width="1.51"/><path d="M-95,35L-57,107L-35,51Z" fill="#d0d8ea" stroke="#d0d8ea" stroke-width="1.51"/><path d="M-78,-33L-95,35L-43,23Z" fill="#e6e3f0" stroke="#e6e3f0" stroke-width="1.51"/><path d="M-95,35L-105,195L-57,107Z" fill="#bdcfe5" stroke="#bdcfe5" stroke-width="1.51"/><path d="M-78,240L-105,195L-59,323Z" fill="#94a9ca" stroke="#94a9ca" stroke-width="1.51"/></svg>