<svg xmlns="http://www.w3.org/2000/svg" width="1170" height="300"><path d="M146,518L-70,524L593,526Z" fill="#728bae" stroke="#728bae" stroke-width="1.51"/><path d="M749,523L593,526L1078,538Z" fill="#1e6d9b" stroke="#1e6d9b" stroke-width="1.51"/><path d="M1078,538L593,526L1212,544Z" fill="#0b6094" stroke="#0b6094" stroke-width="1.51"/><path d="M1286,349L1299,510L1313,195Z" fill="#0c6093" stroke="#0c6093" stroke-width="1.51"/><path d="M1289,-99L1232,53L1323,128Z" fill="#6284a9" stroke="#6284a9" stroke-width="1.51"/><path d="M1313,195L1299,510L1323,128Z" fill="#1c6997" stroke="#1c6997" stroke-width="1.51"/><path d="M741,-277L944,-241L1387,-265Z" fill="#96acd1" stroke="#96acd1" stroke-width="1.51"/><path d="M944,-241L1173,-195L1387,-265Z" fill="#8ea3c4" stroke="#8ea3c4" stroke-width="1.51"/><path d="M1173,-195L1289,-99L1387,-265Z" fill="#8496b3" stroke="#8496b3" stroke-width="1.51"/><path d="M1323,128L1299,510L1387,-265Z" fill="#49779d" stroke="#49779d" stroke-width="1.51"/><path d="M1289,-99L1323,128L1387,-265Z" fill="#7487a7" stroke="#7487a7" stroke-width="1.51"/><path d="M1138,228L1206,368L1286,349Z" fill="#176da2" stroke="#176da2" stroke-width="1.51"/><path d="M1286,349L1206,368L1299,510Z" fill="#045c91" stroke="#045c91" stroke-width="1.51"/><path d="M1138,228L1286,349L1313,195Z" fill="#2371a1" stroke="#2371a1" stroke-width="1.51"/><path d="M1232,53L1313,195L1323,128Z" fill="#4a7ba3" stroke="#4a7ba3" stroke-width="1.51"/><path d="M1152,-47L1232,53L1289,-99Z" fill="#718db4" stroke="#718db4" stroke-width="1.51"/><path d="M1206,368L1212,544L1299,510Z" fill="#04588a" stroke="#04588a" stroke-width="1.51"/><path d="M1232,53L1138,228L1313,195Z" fill="#447daa" stroke="#447daa" stroke-width="1.51"/><path d="M1173,-195L1152,-47L1289,-99Z" fill="#8097bb" stroke="#8097bb" stroke-width="1.51"/><path d="M944,-241L1034,-181L1173,-195Z" fill="#90a7cd" stroke="#90a7cd" stroke-width="1.51"/><path d="M1019,431L1078,538L1206,368Z" fill="#04639c" stroke="#04639c" stroke-width="1.51"/><path d="M1206,368L1078,538L1212,544Z" fill="#045c90" stroke="#045c90" stroke-width="1.51"/><path d="M1152,-47L1072,108L1232,53Z" fill="#658cb8" stroke="#658cb8" stroke-width="1.51"/><path d="M1072,108L1138,228L1232,53Z" fill="#4e85b3" stroke="#4e85b3" stroke-width="1.51"/><path d="M1091,-38L1072,108L1152,-47Z" fill="#6d91be" stroke="#6d91be" stroke-width="1.51"/><path d="M1138,228L1019,431L1206,368Z" fill="#116ea8" stroke="#116ea8" stroke-width="1.51"/><path d="M1075,217L1019,431L1138,228Z" fill="#1d77af" stroke="#1d77af" stroke-width="1.51"/><path d="M1072,108L1075,217L1138,228Z" fill="#4082b4" stroke="#4082b4" stroke-width="1.51"/><path d="M1034,-181L1091,-38L1152,-47Z" fill="#809bc3" stroke="#809bc3" stroke-width="1.51"/><path d="M1034,-181L1152,-47L1173,-195Z" fill="#869ec4" stroke="#869ec4" stroke-width="1.51"/><path d="M320,491L146,518L593,526Z" fill="#6486ae" stroke="#6486ae" stroke-width="1.51"/><path d="M340,-269L574,-242L741,-277Z" fill="#bdcee5" stroke="#bdcee5" stroke-width="1.51"/><path d="M933,465L749,523L1078,538Z" fill="#12679c" stroke="#12679c" stroke-width="1.51"/><path d="M842,422L1019,431L1075,217Z" fill="#1174b2" stroke="#1174b2" stroke-width="1.51"/><path d="M832,175L842,422L1075,217Z" fill="#2b84bb" stroke="#2b84bb" stroke-width="1.51"/><path d="M939,-81L1072,108L1091,-38Z" fill="#7297c4" stroke="#7297c4" stroke-width="1.51"/><path d="M1034,-181L939,-81L1091,-38Z" fill="#84a0cb" stroke="#84a0cb" stroke-width="1.51"/><path d="M939,-81L840,56L1072,108Z" fill="#6f9ac8" stroke="#6f9ac8" stroke-width="1.51"/><path d="M1072,108L832,175L1075,217Z" fill="#478abf" stroke="#478abf" stroke-width="1.51"/><path d="M1019,431L933,465L1078,538Z" fill="#05659f" stroke="#05659f" stroke-width="1.51"/><path d="M840,56L832,175L1072,108Z" fill="#5b96c5" stroke="#5b96c5" stroke-width="1.51"/><path d="M842,422L933,465L1019,431Z" fill="#126ea8" stroke="#126ea8" stroke-width="1.51"/><path d="M944,-241L939,-81L1034,-181Z" fill="#8faad1" stroke="#8faad1" stroke-width="1.51"/><path d="M842,422L749,523L933,465Z" fill="#1d72a7" stroke="#1d72a7" stroke-width="1.51"/><path d="M741,-277L687,-38L939,-81Z" fill="#95b5d6" stroke="#95b5d6" stroke-width="1.51"/><path d="M741,-277L939,-81L944,-241Z" fill="#98b5d7" stroke="#98b5d7" stroke-width="1.51"/><path d="M687,-38L759,25L939,-81Z" fill="#84acd1" stroke="#84acd1" stroke-width="1.51"/><path d="M759,25L840,56L939,-81Z" fill="#7aa5ce" stroke="#7aa5ce" stroke-width="1.51"/><path d="M765,167L737,418L832,175Z" fill="#3c92c1" stroke="#3c92c1" stroke-width="1.51"/><path d="M765,167L832,175L840,56Z" fill="#5c9cc7" stroke="#5c9cc7" stroke-width="1.51"/><path d="M759,25L765,167L840,56Z" fill="#6ba2cb" stroke="#6ba2cb" stroke-width="1.51"/><path d="M832,175L737,418L842,422Z" fill="#2a84ba" stroke="#2a84ba" stroke-width="1.51"/><path d="M737,418L749,523L842,422Z" fill="#2679ac" stroke="#2679ac" stroke-width="1.51"/><path d="M388,481L320,491L593,526Z" fill="#5b85af" stroke="#5b85af" stroke-width="1.51"/><path d="M574,-242L687,-38L741,-277Z" fill="#a9c2de" stroke="#a9c2de" stroke-width="1.51"/><path d="M596,112L547,184L765,167Z" fill="#6da5cc" stroke="#6da5cc" stroke-width="1.51"/><path d="M535,349L737,418L765,167Z" fill="#4490c1" stroke="#4490c1" stroke-width="1.51"/><path d="M547,184L535,349L765,167Z" fill="#5c9dc8" stroke="#5c9dc8" stroke-width="1.51"/><path d="M759,25L596,112L765,167Z" fill="#71a6cd" stroke="#71a6cd" stroke-width="1.51"/><path d="M737,418L593,526L749,523Z" fill="#367aa9" stroke="#367aa9" stroke-width="1.51"/><path d="M687,-38L596,112L759,25Z" fill="#84add2" stroke="#84add2" stroke-width="1.51"/><path d="M535,349L593,526L737,418Z" fill="#4484b5" stroke="#4484b5" stroke-width="1.51"/><path d="M563,-17L596,112L687,-38Z" fill="#8eb2d5" stroke="#8eb2d5" stroke-width="1.51"/><path d="M574,-242L563,-17L687,-38Z" fill="#a4bedb" stroke="#a4bedb" stroke-width="1.51"/><path d="M489,226L535,349L547,184Z" fill="#64a0ca" stroke="#64a0ca" stroke-width="1.51"/><path d="M340,-269L387,-234L574,-242Z" fill="#c8d4e8" stroke="#c8d4e8" stroke-width="1.51"/><path d="M391,-108L563,-17L574,-242Z" fill="#b3c5df" stroke="#b3c5df" stroke-width="1.51"/><path d="M387,-234L391,-108L574,-242Z" fill="#c2cfe5" stroke="#c2cfe5" stroke-width="1.51"/><path d="M535,349L388,481L593,526Z" fill="#5588b6" stroke="#5588b6" stroke-width="1.51"/><path d="M563,-17L412,103L596,112Z" fill="#8fb3d6" stroke="#8fb3d6" stroke-width="1.51"/><path d="M412,103L547,184L596,112Z" fill="#81aed2" stroke="#81aed2" stroke-width="1.51"/><path d="M-128,-221L130,-190L340,-269Z" fill="#e5e2ef" stroke="#e5e2ef" stroke-width="1.51"/><path d="M489,226L448,320L535,349Z" fill="#639cc8" stroke="#639cc8" stroke-width="1.51"/><path d="M391,-108L412,103L563,-17Z" fill="#a6bddb" stroke="#a6bddb" stroke-width="1.51"/><path d="M448,320L388,481L535,349Z" fill="#5f91c2" stroke="#5f91c2" stroke-width="1.51"/><path d="M412,103L489,226L547,184Z" fill="#7dabd1" stroke="#7dabd1" stroke-width="1.51"/><path d="M301,242L448,320L489,226Z" fill="#71a5cd" stroke="#71a5cd" stroke-width="1.51"/><path d="M412,103L301,242L489,226Z" fill="#83add2" stroke="#83add2" stroke-width="1.51"/><path d="M391,-108L239,-36L412,103Z" fill="#b3c3df" stroke="#b3c3df" stroke-width="1.51"/><path d="M308,337L388,481L448,320Z" fill="#6995c5" stroke="#6995c5" stroke-width="1.51"/><path d="M301,242L308,337L448,320Z" fill="#75a2cc" stroke="#75a2cc" stroke-width="1.51"/><path d="M308,337L320,491L388,481Z" fill="#6b91bd" stroke="#6b91bd" stroke-width="1.51"/><path d="M233,124L301,242L412,103Z" fill="#93b5d6" stroke="#93b5d6" stroke-width="1.51"/><path d="M239,-36L233,124L412,103Z" fill="#a9bedc" stroke="#a9bedc" stroke-width="1.51"/><path d="M387,-234L340,-269L391,-108Z" fill="#cbd3e7" stroke="#cbd3e7" stroke-width="1.51"/><path d="M340,-269L239,-36L391,-108Z" fill="#c9cfe6" stroke="#c9cfe6" stroke-width="1.51"/><path d="M130,-190L239,-36L340,-269Z" fill="#d5d7ea" stroke="#d5d7ea" stroke-width="1.51"/><path d="M308,337L116,410L320,491Z" fill="#7798c3" stroke="#7798c3" stroke-width="1.51"/><path d="M116,410L146,518L320,491Z" fill="#7994ba" stroke="#7994ba" stroke-width="1.51"/><path d="M130,-190L155,-49L239,-36Z" fill="#d2d2e7" stroke="#d2d2e7" stroke-width="1.51"/><path d="M76,198L116,410L301,242Z" fill="#8badd2" stroke="#8badd2" stroke-width="1.51"/><path d="M301,242L116,410L308,337Z" fill="#7fa3cc" stroke="#7fa3cc" stroke-width="1.51"/><path d="M233,124L76,198L301,242Z" fill="#99b7d7" stroke="#99b7d7" stroke-width="1.51"/><path d="M-128,-221L-4,-169L130,-190Z" fill="#eae5f1" stroke="#eae5f1" stroke-width="1.51"/><path d="M102,44L233,124L239,-36Z" fill="#b8c5e0" stroke="#b8c5e0" stroke-width="1.51"/><path d="M155,-49L102,44L239,-36Z" fill="#c5cce3" stroke="#c5cce3" stroke-width="1.51"/><path d="M102,44L76,198L233,124Z" fill="#acc1dd" stroke="#acc1dd" stroke-width="1.51"/><path d="M76,198L15,338L116,410Z" fill="#8fadd2" stroke="#8fadd2" stroke-width="1.51"/><path d="M-23,-46L102,44L155,-49Z" fill="#ccd1e6" stroke="#ccd1e6" stroke-width="1.51"/><path d="M130,-190L-4,-169L155,-49Z" fill="#dddbec" stroke="#dddbec" stroke-width="1.51"/><path d="M-4,-169L-23,-46L155,-49Z" fill="#dad9ea" stroke="#dad9ea" stroke-width="1.51"/><path d="M-3,72L76,198L102,44Z" fill="#b5c7e1" stroke="#b5c7e1" stroke-width="1.51"/><path d="M116,410L-70,524L146,518Z" fill="#8399bc" stroke="#8399bc" stroke-width="1.51"/><path d="M-29,259L15,338L76,198Z" fill="#98b7d8" stroke="#98b7d8" stroke-width="1.51"/><path d="M15,338L-70,524L116,410Z" fill="#8aa1c8" stroke="#8aa1c8" stroke-width="1.51"/><path d="M-23,-46L-3,72L102,44Z" fill="#c8d0e5" stroke="#c8d0e5" stroke-width="1.51"/><path d="M-3,72L-29,259L76,198Z" fill="#aac2dd" stroke="#aac2dd" stroke-width="1.51"/><path d="M-145,92L-29,259L-3,72Z" fill="#b5cae2" stroke="#b5cae2" stroke-width="1.51"/><path d="M-108,520L-70,524L15,338Z" fill="#8ca1c3" stroke="#8ca1c3" stroke-width="1.51"/><path d="M-29,259L-219,348L15,338Z" fill="#99b4d7" stroke="#99b4d7" stroke-width="1.51"/><path d="M-219,348L-108,520L15,338Z" fill="#92a9ce" stroke="#92a9ce" stroke-width="1.51"/><path d="M-199,-126L-23,-46L-4,-169Z" fill="#e5e1ef" stroke="#e5e1ef" stroke-width="1.51"/><path d="M-128,-221L-199,-126L-4,-169Z" fill="#ede8f2" stroke="#ede8f2" stroke-width="1.51"/><path d="M-23,-46L-145,92L-3,72Z" fill="#cad3e7" stroke="#cad3e7" stroke-width="1.51"/><path d="M-145,92L-225,255L-29,259Z" fill="#adc5df" stroke="#adc5df" stroke-width="1.51"/><path d="M-225,255L-219,348L-29,259Z" fill="#9fbcda" stroke="#9fbcda" stroke-width="1.51"/><path d="M-199,-126L-145,92L-23,-46Z" fill="#d9dbeb" stroke="#d9dbeb" stroke-width="1.51"/><path d="M-199,-126L-225,255L-145,92Z" fill="#c9d5e8" stroke="#c9d5e8" stroke-width="1.51"/></svg>